<mxfile host="app.diagrams.net" modified="2024-03-05T17:33:50.884Z" agent="Mozilla/5.0 (X11; Linux x86_64; rv:123.0) Gecko/20100101 Firefox/123.0" etag="EWnBL26TkOxwsbjB24By" version="24.0.1" type="device">
  <diagram name="Page-1" id="vmDN-CPJcAc-EzihigOM">
    <mxGraphModel dx="938" dy="1322" grid="1" gridSize="10" guides="1" tooltips="1" connect="1" arrows="1" fold="1" page="1" pageScale="1" pageWidth="850" pageHeight="1100" math="0" shadow="0">
      <root>
        <mxCell id="0" />
        <mxCell id="1" parent="0" />
        <mxCell id="uSSfYqja-_waBZfuSP1y-1" value="checkEmergency" style="swimlane;whiteSpace=wrap;html=1;" vertex="1" parent="1">
          <mxGeometry x="130" y="170" width="170" height="140" as="geometry" />
        </mxCell>
        <mxCell id="uSSfYqja-_waBZfuSP1y-23" value="&lt;div align=&quot;left&quot;&gt;entry/&lt;/div&gt;&lt;div align=&quot;left&quot;&gt;&lt;span style=&quot;white-space: pre;&quot;&gt;&#x9;check_emergency&lt;/span&gt;()&lt;br&gt;&lt;/div&gt;" style="text;html=1;align=left;verticalAlign=middle;resizable=0;points=[];autosize=1;strokeColor=none;fillColor=none;" vertex="1" parent="uSSfYqja-_waBZfuSP1y-1">
          <mxGeometry x="15" y="40" width="140" height="40" as="geometry" />
        </mxCell>
        <mxCell id="uSSfYqja-_waBZfuSP1y-3" style="edgeStyle=orthogonalEdgeStyle;rounded=0;orthogonalLoop=1;jettySize=auto;html=1;exitX=1;exitY=0.5;exitDx=0;exitDy=0;" edge="1" parent="1" source="uSSfYqja-_waBZfuSP1y-2" target="uSSfYqja-_waBZfuSP1y-1">
          <mxGeometry relative="1" as="geometry" />
        </mxCell>
        <mxCell id="uSSfYqja-_waBZfuSP1y-2" value="" style="ellipse;whiteSpace=wrap;html=1;aspect=fixed;fillColor=#000000;" vertex="1" parent="1">
          <mxGeometry x="80" y="80" width="40" height="40" as="geometry" />
        </mxCell>
        <mxCell id="uSSfYqja-_waBZfuSP1y-4" style="edgeStyle=orthogonalEdgeStyle;rounded=0;orthogonalLoop=1;jettySize=auto;html=1;exitX=1;exitY=0.5;exitDx=0;exitDy=0;entryX=0.75;entryY=0;entryDx=0;entryDy=0;" edge="1" parent="1" source="uSSfYqja-_waBZfuSP1y-1" target="uSSfYqja-_waBZfuSP1y-1">
          <mxGeometry relative="1" as="geometry">
            <Array as="points">
              <mxPoint x="390" y="240" />
              <mxPoint x="390" y="120" />
              <mxPoint x="258" y="120" />
            </Array>
          </mxGeometry>
        </mxCell>
        <mxCell id="uSSfYqja-_waBZfuSP1y-5" value="[!emergency]" style="text;html=1;align=center;verticalAlign=middle;resizable=0;points=[];autosize=1;strokeColor=none;fillColor=none;" vertex="1" parent="1">
          <mxGeometry x="380" y="150" width="90" height="30" as="geometry" />
        </mxCell>
        <mxCell id="uSSfYqja-_waBZfuSP1y-6" value="activeEmergency" style="swimlane;whiteSpace=wrap;html=1;" vertex="1" parent="1">
          <mxGeometry x="80" y="440" width="500" height="560" as="geometry" />
        </mxCell>
        <mxCell id="uSSfYqja-_waBZfuSP1y-16" style="edgeStyle=orthogonalEdgeStyle;rounded=0;orthogonalLoop=1;jettySize=auto;html=1;exitX=1;exitY=0.25;exitDx=0;exitDy=0;entryX=0;entryY=0.25;entryDx=0;entryDy=0;" edge="1" parent="uSSfYqja-_waBZfuSP1y-6" source="uSSfYqja-_waBZfuSP1y-9" target="uSSfYqja-_waBZfuSP1y-12">
          <mxGeometry relative="1" as="geometry" />
        </mxCell>
        <mxCell id="uSSfYqja-_waBZfuSP1y-9" value="buzz" style="swimlane;whiteSpace=wrap;html=1;" vertex="1" parent="uSSfYqja-_waBZfuSP1y-6">
          <mxGeometry x="10" y="120" width="170" height="160" as="geometry" />
        </mxCell>
        <mxCell id="uSSfYqja-_waBZfuSP1y-10" value="&lt;div align=&quot;left&quot;&gt;entry/&lt;/div&gt;&lt;div align=&quot;left&quot;&gt;&lt;span style=&quot;white-space: pre;&quot;&gt;&#x9;&lt;/span&gt;buzzer_on()&lt;br&gt;&lt;/div&gt;" style="text;html=1;align=left;verticalAlign=middle;resizable=0;points=[];autosize=1;strokeColor=none;fillColor=none;" vertex="1" parent="uSSfYqja-_waBZfuSP1y-9">
          <mxGeometry x="25" y="50" width="100" height="40" as="geometry" />
        </mxCell>
        <mxCell id="uSSfYqja-_waBZfuSP1y-11" value="T=1 second" style="text;html=1;align=center;verticalAlign=middle;resizable=0;points=[];autosize=1;strokeColor=none;fillColor=none;" vertex="1" parent="uSSfYqja-_waBZfuSP1y-9">
          <mxGeometry x="45" y="110" width="80" height="30" as="geometry" />
        </mxCell>
        <mxCell id="uSSfYqja-_waBZfuSP1y-25" style="edgeStyle=orthogonalEdgeStyle;rounded=0;orthogonalLoop=1;jettySize=auto;html=1;exitX=0.5;exitY=1;exitDx=0;exitDy=0;entryX=1;entryY=0.5;entryDx=0;entryDy=0;" edge="1" parent="uSSfYqja-_waBZfuSP1y-6" source="uSSfYqja-_waBZfuSP1y-12" target="uSSfYqja-_waBZfuSP1y-18">
          <mxGeometry relative="1" as="geometry" />
        </mxCell>
        <mxCell id="uSSfYqja-_waBZfuSP1y-12" value="dontBuzz" style="swimlane;whiteSpace=wrap;html=1;" vertex="1" parent="uSSfYqja-_waBZfuSP1y-6">
          <mxGeometry x="320" y="120" width="170" height="160" as="geometry" />
        </mxCell>
        <mxCell id="uSSfYqja-_waBZfuSP1y-13" value="&lt;div align=&quot;left&quot;&gt;entry/&lt;/div&gt;&lt;div align=&quot;left&quot;&gt;&lt;span style=&quot;white-space: pre;&quot;&gt;&#x9;&lt;/span&gt;buzzer_off()&lt;br&gt;&lt;/div&gt;" style="text;html=1;align=left;verticalAlign=middle;resizable=0;points=[];autosize=1;strokeColor=none;fillColor=none;" vertex="1" parent="uSSfYqja-_waBZfuSP1y-12">
          <mxGeometry x="30" y="50" width="110" height="40" as="geometry" />
        </mxCell>
        <mxCell id="uSSfYqja-_waBZfuSP1y-14" value="T=1 second" style="text;html=1;align=center;verticalAlign=middle;resizable=0;points=[];autosize=1;strokeColor=none;fillColor=none;" vertex="1" parent="uSSfYqja-_waBZfuSP1y-12">
          <mxGeometry x="45" y="110" width="80" height="30" as="geometry" />
        </mxCell>
        <mxCell id="uSSfYqja-_waBZfuSP1y-24" style="edgeStyle=orthogonalEdgeStyle;rounded=0;orthogonalLoop=1;jettySize=auto;html=1;exitX=0;exitY=0.5;exitDx=0;exitDy=0;entryX=0.5;entryY=1;entryDx=0;entryDy=0;" edge="1" parent="uSSfYqja-_waBZfuSP1y-6" source="uSSfYqja-_waBZfuSP1y-18" target="uSSfYqja-_waBZfuSP1y-9">
          <mxGeometry relative="1" as="geometry" />
        </mxCell>
        <mxCell id="uSSfYqja-_waBZfuSP1y-18" value="checkNoEmergency" style="swimlane;whiteSpace=wrap;html=1;" vertex="1" parent="uSSfYqja-_waBZfuSP1y-6">
          <mxGeometry x="165" y="310" width="170" height="160" as="geometry" />
        </mxCell>
        <mxCell id="uSSfYqja-_waBZfuSP1y-19" value="&lt;div align=&quot;left&quot;&gt;entry/&lt;/div&gt;&lt;div align=&quot;left&quot;&gt;&lt;span style=&quot;white-space: pre;&quot;&gt;&#x9;check_emergency&lt;/span&gt;()&lt;br&gt;&lt;/div&gt;" style="text;html=1;align=left;verticalAlign=middle;resizable=0;points=[];autosize=1;strokeColor=none;fillColor=none;" vertex="1" parent="uSSfYqja-_waBZfuSP1y-18">
          <mxGeometry x="15" y="40" width="140" height="40" as="geometry" />
        </mxCell>
        <mxCell id="uSSfYqja-_waBZfuSP1y-28" style="edgeStyle=orthogonalEdgeStyle;rounded=0;orthogonalLoop=1;jettySize=auto;html=1;exitX=0;exitY=0.5;exitDx=0;exitDy=0;entryX=0.5;entryY=0;entryDx=0;entryDy=0;" edge="1" parent="uSSfYqja-_waBZfuSP1y-6" source="uSSfYqja-_waBZfuSP1y-27" target="uSSfYqja-_waBZfuSP1y-9">
          <mxGeometry relative="1" as="geometry" />
        </mxCell>
        <mxCell id="uSSfYqja-_waBZfuSP1y-27" value="" style="ellipse;whiteSpace=wrap;html=1;aspect=fixed;fillColor=#000000;" vertex="1" parent="uSSfYqja-_waBZfuSP1y-6">
          <mxGeometry x="155" y="50" width="40" height="40" as="geometry" />
        </mxCell>
        <mxCell id="uSSfYqja-_waBZfuSP1y-29" value="[emergency]" style="text;html=1;align=center;verticalAlign=middle;resizable=0;points=[];autosize=1;strokeColor=none;fillColor=none;" vertex="1" parent="uSSfYqja-_waBZfuSP1y-6">
          <mxGeometry x="10" y="320" width="80" height="30" as="geometry" />
        </mxCell>
        <mxCell id="uSSfYqja-_waBZfuSP1y-30" value="![emergency]" style="text;html=1;align=center;verticalAlign=middle;resizable=0;points=[];autosize=1;strokeColor=none;fillColor=none;" vertex="1" parent="uSSfYqja-_waBZfuSP1y-6">
          <mxGeometry x="345" y="490" width="90" height="30" as="geometry" />
        </mxCell>
        <mxCell id="uSSfYqja-_waBZfuSP1y-7" style="edgeStyle=orthogonalEdgeStyle;rounded=0;orthogonalLoop=1;jettySize=auto;html=1;exitX=0.5;exitY=1;exitDx=0;exitDy=0;entryX=0.268;entryY=0.007;entryDx=0;entryDy=0;entryPerimeter=0;" edge="1" parent="1" source="uSSfYqja-_waBZfuSP1y-1" target="uSSfYqja-_waBZfuSP1y-6">
          <mxGeometry relative="1" as="geometry" />
        </mxCell>
        <mxCell id="uSSfYqja-_waBZfuSP1y-8" value="[emergency]" style="text;html=1;align=center;verticalAlign=middle;resizable=0;points=[];autosize=1;strokeColor=none;fillColor=none;" vertex="1" parent="1">
          <mxGeometry x="215" y="350" width="80" height="30" as="geometry" />
        </mxCell>
        <mxCell id="uSSfYqja-_waBZfuSP1y-26" value="Start" style="text;html=1;align=center;verticalAlign=middle;resizable=0;points=[];autosize=1;strokeColor=none;fillColor=none;" vertex="1" parent="1">
          <mxGeometry x="75" y="50" width="50" height="30" as="geometry" />
        </mxCell>
        <mxCell id="uSSfYqja-_waBZfuSP1y-31" style="edgeStyle=orthogonalEdgeStyle;rounded=0;orthogonalLoop=1;jettySize=auto;html=1;exitX=0.5;exitY=1;exitDx=0;exitDy=0;entryX=1;entryY=0.75;entryDx=0;entryDy=0;" edge="1" parent="1" source="uSSfYqja-_waBZfuSP1y-18" target="uSSfYqja-_waBZfuSP1y-1">
          <mxGeometry relative="1" as="geometry">
            <Array as="points">
              <mxPoint x="330" y="960" />
              <mxPoint x="700" y="960" />
              <mxPoint x="700" y="275" />
            </Array>
          </mxGeometry>
        </mxCell>
      </root>
    </mxGraphModel>
  </diagram>
</mxfile>
